HIERARCHY
ROOT Hips
{
  OFFSET 0 0 0
  CHANNELS 6 Xposition Yposition Zposition Zrotation Xrotation Yrotation
  JOINT Spine
  {
    OFFSET 0 10 0
    CHANNELS 3 Zrotation Xrotation Yrotation
    JOINT Neck
    {
      OFFSET 0 30 0
      CHANNELS 3 Zrotation Xrotation Yrotation
      JOINT Head
      {
        OFFSET 0 8 0
        CHANNELS 3 Zrotation Xrotation Yrotation
        End Site
        {
          OFFSET 0 10 0
        }
      }
    }
    JOINT LeftArm
    {
      OFFSET 15 30 0
      CHANNELS 3 Zrotation Xrotation Yrotation
      JOINT LeftForeArm
      {
        OFFSET 25 0 0
        CHANNELS 3 Zrotation Xrotation Yrotation
        JOINT LeftHand
        {
          OFFSET 25 0 0
          CHANNELS 3 Zrotation Xrotation Yrotation
          End Site
          {
            OFFSET 10 0 0
          }
        }
      }
    }
    JOINT RightArm
    {
      OFFSET -15 30 0
      CHANNELS 3 Zrotation Xrotation Yrotation
      JOINT RightForeArm
      {
        OFFSET -25 0 0
        CHANNELS 3 Zrotation Xrotation Yrotation
        JOINT RightHand
        {
          OFFSET -25 0 0
          CHANNELS 3 Zrotation Xrotation Yrotation
          End Site
          {
            OFFSET -10 0 0
          }
        }
      }
    }
  }
  JOINT LeftUpLeg
  {
    OFFSET 10 -10 0
    CHANNELS 3 Zrotation Xrotation Yrotation
    JOINT LeftLeg
    {
      OFFSET 0 -35 0
      CHANNELS 3 Zrotation Xrotation Yrotation
      JOINT LeftToe
      {
        OFFSET 0 -40 0
        CHANNELS 3 Zrotation Xrotation Yrotation
        JOINT LeftToeEnd
        {
          OFFSET 0 0 0
          CHANNELS 3 Zrotation Xrotation Yrotation
          End Site
          {
            OFFSET 0 0 15
          }
        }
      }
    }
  }
  JOINT RightUpLeg
  {
    OFFSET -10 -10 0
    CHANNELS 3 Zrotation Xrotation Yrotation
    JOINT RightLeg
    {
      OFFSET 0 -35 0
      CHANNELS 3 Zrotation Xrotation Yrotation
      JOINT RightToe
      {
        OFFSET 0 -40 0
        CHANNELS 3 Zrotation Xrotation Yrotation
        JOINT RightToeEnd
        {
          OFFSET 0 0 0
          CHANNELS 3 Zrotation Xrotation Yrotation
          End Site
          {
            OFFSET 0 0 15
          }
        }
      }
    }
  }
}
MOTION
Frames:	15
Frame Time:	0.0333333
1.16885 86.2826 -14.6325 -1.29842 3.11442 1.31458 -0.587717 1.06334 -5.48895 -6.58875 -10.7767 -10.0539 10.1419 24.27 -15.2144 -89.5921 -0.191941 5.40764 12.907 -4.05191 -33.4687 -0.470528 5.72446 0.778397 90.3804 -0.856357 4.10688 -4.99467 -0.77478 20.5646 -0.992815 12.9633 -1.99431 3.3221 -7.63026 1.39466 -1.08371 29.6354 0.407625 -1.19058 -25.0915 3.26614 9.40296e-019 4.85314e-020 1.59028e-015 0.819681 -7.86144 1.49138 0.0299922 28.3656 -1.05314 1.01304 -23.6438 -9.73875 3.17881e-018 3.15454e-019 6.36111e-015 
1.16885 86.2826 -14.5808 -1.31112 3.1219 1.23514 -0.61249 1.02125 -5.57234 -7.04439 -10.4761 -10.3278 10.9219 23.7738 -15.7589 -89.6404 -0.196761 5.37557 12.9321 -4.06118 -33.5084 -0.468221 5.55547 0.77817 90.3465 -1.06787 4.01704 -4.95106 -0.759945 20.4557 -1.00211 13.0621 -1.98274 3.33884 -7.54514 1.44323 -1.08263 29.573 0.406211 -1.18974 -25.1188 3.26174 -8.25034e-019 1.94126e-019 -0 0.845892 -7.84798 1.50527 0.0296452 28.349 -1.05297 1.00212 -23.6467 -9.72244 2.12628e-018 1.94126e-019 4.77083e-015 
1.16885 86.2826 -14.5316 -1.30495 3.12842 1.16371 -0.655479 0.997026 -5.63813 -7.37549 -10.2556 -10.5229 11.5165 23.3857 -16.1434 -89.6854 -0.181633 5.3195 12.9529 -4.06755 -33.5405 -0.466588 5.43574 0.778014 90.3137 -1.35489 3.96532 -4.88853 -0.740348 20.3095 -1.01256 13.2278 -1.96898 3.3319 -7.45901 1.49045 -1.08262 29.5016 0.407086 -1.17733 -25.1367 3.26487 1.17234e-018 1.45594e-019 3.18055e-015 0.844982 -7.82637 1.51701 0.0293385 28.3343 -1.05283 0.999501 -23.6586 -9.68992 1.64324e-018 1.51661e-019 3.18055e-015 
1.16885 86.2826 -14.4887 -1.22895 3.13719 1.11735 -0.771895 1.01468 -5.65381 -7.38271 -10.1969 -10.5194 11.6273 23.1662 -16.1307 -89.7169 -0.124207 5.17743 12.9511 -4.06084 -33.5334 -0.467242 5.48372 0.778076 90.2838 -1.87782 4.02751 -4.75717 -0.70272 20.0265 -1.02732 13.6022 -1.94785 3.23836 -7.36892 1.53625 -1.08618 29.3926 0.415719 -1.12543 -25.1213 3.29013 4.56195e-018 7.76503e-019 2.38542e-015 0.743989 -7.78659 1.51657 0.0293475 28.3347 -1.05283 1.02633 -23.7053 -9.59355 1.87453e-018 1.81993e-019 3.18055e-015 
1.16885 86.2826 -14.4502 -1.16069 3.13485 1.07689 -0.868203 1.07357 -5.64657 -7.18351 -10.3731 -10.3633 11.4689 23.3654 -15.8107 -89.7508 -0.011646 5.03938 12.964 -4.0601 -33.551 -0.468024 5.54103 0.778151 90.2637 -2.45693 4.12941 -4.63065 -0.667637 19.7564 -1.04204 14.0282 -1.92623 3.15289 -7.27962 1.57553 -1.09001 29.2953 0.424805 -1.07153 -25.106 3.32385 7.37677e-018 3.10601e-018 2.38542e-015 0.653342 -7.72616 1.52546 0.0290066 28.3184 -1.05267 1.05274 -23.7451 -9.51131 1.83358e-018 5.30812e-020 4.77083e-015 
1.16734 86.2877 -14.4151 -1.20256 3.0848 1.0199 -0.819786 1.21289 -5.63537 -6.81629 -10.9747 -10.0735 11.0569 24.4078 -15.1935 -89.8084 0.23033 5.01107 13.0524 -4.09406 -33.6974 -0.466319 5.42576 0.776601 90.2699 -3.01596 4.22267 -4.57996 -0.656302 19.642 -1.05265 14.4501 -1.90813 3.20526 -7.17676 1.61027 -1.09076 29.2695 0.426676 -1.05532 -25.1313 3.34948 -9.12391e-018 0 3.18055e-015 0.72251 -7.61638 1.58696 0.0289672 28.2311 -1.05557 1.03664 -23.7174 -9.54381 6.36975e-019 1.6986e-019 4.77083e-015 
1.17152 86.2888 -14.3848 -1.22933 3.05997 0.973298 -0.775449 1.33722 -5.61245 -6.29399 -11.7338 -9.6103 10.5894 25.8419 -14.2568 -89.8651 0.439596 4.9836 13.1266 -4.12316 -33.8206 -0.464807 5.327 0.774673 90.2662 -3.40548 4.30401 -4.56537 -0.654456 19.6044 -1.06028 14.7062 -1.89694 3.22751 -7.11469 1.61911 -1.09132 29.2554 0.428003 -1.0421 -25.1521 3.3903 1.94126e-019 0 1.59028e-015 0.760962 -7.52592 1.62568 0.0269098 28.153 -1.0539 1.03468 -23.7047 -9.57602 1.04343e-018 -4.85314e-020 7.95139e-015 
1.19401 86.2768 -14.3624 -1.08465 3.15515 0.96763 -0.920277 1.32333 -5.58561 -5.62782 -12.4303 -8.89833 10.3679 27.3379 -12.9064 -89.8963 0.398985 4.84481 13.0898 -4.10656 -33.7553 -0.465844 5.42511 0.771668 90.2062 -3.36052 4.3497 -4.55837 -0.649068 19.5875 -1.06518 14.5356 -1.90027 3.00022 -7.16978 1.54805 -1.09475 29.1844 0.43599 -0.99299 -25.1124 3.48388 -5.43552e-018 -3.10601e-018 1.59028e-015 0.529881 -7.52185 1.53926 0.018982 28.1639 -1.03674 1.12044 -23.812 -9.48552 2.93615e-018 3.3972e-019 9.54166e-015 
1.21972 86.2628 -14.3426 -0.963662 3.26813 0.969497 -1.02028 1.29379 -5.52692 -4.86369 -13.1077 -8.05684 10.0894 28.9316 -11.3376 -89.922 0.347977 4.70961 13.0261 -4.07803 -33.6457 -0.467408 5.56433 0.768547 90.1313 -3.15183 4.37147 -4.59555 -0.65733 19.6656 -1.0656 14.1807 -1.90938 2.80743 -7.26157 1.49691 -1.09706 29.1426 0.441311 -0.9607 -25.0858 3.57066 -3.88251e-018 3.10601e-018 2.38542e-015 0.325045 -7.58027 1.45205 0.0118177 28.2111 -1.01999 1.20146 -23.9115 -9.39493 2.88155e-019 0 3.18055e-015 
1.23523 86.2571 -14.32 -1.08455 3.31222 0.968758 -0.817611 1.34164 -5.403 -4.06516 -13.7572 -7.17626 9.59798 30.6482 -9.7379 -89.959 0.496469 4.67633 12.9961 -4.0607 -33.5952 -0.468198 5.64097 0.766181 90.0795 -3.06511 4.37624 -4.7103 -0.697019 19.9118 -1.05822 13.9187 -1.91431 2.96613 -7.33939 1.5739 -1.09294 29.2344 0.431613 -1.01516 -25.1559 3.58157 1.16475e-018 0 3.18055e-015 0.46838 -7.72844 1.47987 0.0132032 28.2693 -1.02099 1.17666 -23.8678 -9.43202 1.69557e-018 2.42657e-019 4.77083e-015 
1.24823 86.2531 -14.2975 -1.22179 3.33568 0.926149 -0.570183 1.43228 -5.23799 -3.21898 -14.3134 -6.27262 8.85607 32.1906 -8.07075 -89.9887 0.716423 4.68266 12.9742 -4.04584 -33.5607 -0.468505 5.6792 0.764136 90.0196 -2.79024 4.35546 -4.88253 -0.75287 20.2737 -1.04819 13.3847 -1.9263 3.16001 -7.39021 1.70017 -1.0895 29.3357 0.423221 -1.06455 -25.2369 3.58329 7.03705e-019 1.94126e-019 3.97569e-015 0.643367 -7.88013 1.54606 0.0160105 28.3368 -1.02467 1.14238 -23.809 -9.45994 1.63642e-018 2.06259e-019 6.36111e-015 
1.26088 86.2488 -14.2728 -1.16641 3.34899 0.774711 -0.512652 1.57285 -5.05481 -2.30257 -14.684 -5.36316 7.77782 33.2178 -6.30635 -89.9966 0.904868 4.68844 12.9521 -4.03091 -33.5278 -0.468386 5.68261 0.762477 89.9119 -1.89755 4.29857 -5.10324 -0.811638 20.7231 -1.04705 12.0338 -1.95577 3.11007 -7.34714 1.83877 -1.09471 29.3169 0.434111 -1.01057 -25.2469 3.62302 7.76503e-018 -6.21202e-018 2.38542e-015 0.57137 -7.91439 1.62446 0.0136079 28.3938 -1.01969 1.17781 -23.8424 -9.3627 1.65007e-018 1.45594e-019 4.77083e-015 
1.27627 86.2402 -14.256 -1.08667 3.37877 0.587385 -0.457614 1.73126 -4.82377 -1.43616 -14.9405 -4.5412 6.54881 33.8764 -4.69927 -89.9881 1.19643 4.72552 12.9388 -4.02046 -33.5144 -0.467228 5.60919 0.760585 89.8237 -1.03107 4.22105 -5.37261 -0.884983 21.2608 -1.03608 10.6831 -1.99679 3.01908 -7.32126 1.97195 -1.10096 29.2989 0.447136 -0.942429 -25.2582 3.69016 -1.16475e-017 -1.2424e-017 7.95139e-016 0.458715 -7.9626 1.67906 0.00969804 28.4691 -1.01216 1.23334 -23.8953 -9.20544 1.67888e-018 1.96021e-019 6.36111e-015 
1.30298 86.2178 -14.2656 -1.1124 3.47397 0.440143 -0.245249 1.86553 -4.47125 -0.75685 -15.1258 -3.9483 5.26843 34.1728 -3.61052 -89.9724 1.84689 4.8394 12.9565 -4.02544 -33.5661 -0.463099 5.31296 0.758274 89.831 -0.92252 4.12177 -5.72143 -0.991678 21.9372 -0.981947 10.2546 -2.05435 3.02653 -7.45119 2.05385 -1.10174 29.3952 0.447395 -0.936682 -25.3357 3.78469 -3.88251e-019 0 2.38542e-015 0.442426 -8.15692 1.61403 0.00495198 28.6032 -1.00375 1.28831 -23.927 -8.99649 1.63187e-018 1.6986e-019 6.36111e-015 
1.32664 86.1957 -14.2736 -1.1488 3.57815 0.256868 -0.0268899 2.01229 -4.15184 -0.184329 -15.2409 -3.45694 4.12033 34.2456 -2.71606 -89.9278 2.38941 4.95019 12.9572 -4.02414 -33.5861 -0.460067 5.10936 0.754357 89.8555 -0.88001 4.03217 -6.04704 -1.09632 22.575 -0.932092 9.88765 -2.10079 3.04657 -7.58742 2.13234 -1.10184 29.4979 0.446179 -0.932103 -25.4193 3.92245 -4.85314e-019 0 3.18055e-015 0.451611 -8.37406 1.58271 -0.000605987 28.7411 -0.996464 1.33413 -23.9485 -8.79067 1.63339e-018 1.95642e-019 4.77083e-015 
